<?xml version="1.0" standalone="no"?>
<!DOCTYPE svg PUBLIC "-//W3C//DTD SVG 20010904//EN"
 "http://www.w3.org/TR/2001/REC-SVG-20010904/DTD/svg10.dtd">
<svg version="1.0" xmlns="http://www.w3.org/2000/svg"
 width="2560.000000pt" height="664.000000pt" viewBox="0 0 2560.000000 664.000000"
 preserveAspectRatio="xMidYMid meet">

<g transform="translate(0.000000,664.000000) scale(0.100000,-0.100000)"
fill="#000000" stroke="none">
<path d="M210 3333 c0 -1818 2 -3304 4 -3302 2 2 613 1460 1356 3239 744 1779
1365 3265 1381 3303 l28 67 -1384 0 -1385 0 0 -3307z"/>
<path d="M4943 6623 c7 -25 2747 -6587 2753 -6592 2 -2 4 1484 4 3302 l0 3307
-1381 0 c-1311 0 -1381 -1 -1376 -17z"/>
<path d="M15356 5434 c-3 -9 -6 -276 -6 -593 l0 -578 -182 5 c-416 11 -747
-76 -1048 -276 -111 -74 -290 -253 -363 -363 -63 -95 -134 -238 -167 -339
-102 -305 -102 -692 1 -1014 142 -442 492 -747 972 -846 381 -78 839 -39 1267
109 155 53 207 78 212 98 3 10 0 47 -5 83 -5 38 -11 827 -14 1898 l-4 1832
-328 0 c-291 0 -330 -2 -335 -16z m-58 -1749 l52 -16 0 -828 0 -828 -82 -19
c-124 -28 -362 -26 -483 4 -148 37 -244 90 -345 191 -73 72 -95 101 -134 181
-69 141 -87 224 -93 421 -8 239 24 377 123 536 125 201 334 331 600 373 83 13
298 4 362 -15z"/>
<path d="M19947 5443 c-9 -8 -9 -3885 -1 -3907 11 -28 222 -82 450 -116 664
-98 1233 50 1619 422 260 250 402 563 437 961 54 628 -248 1161 -780 1371
-155 62 -282 87 -479 93 -191 6 -312 -5 -463 -43 -52 -13 -97 -24 -101 -24 -3
0 -9 277 -12 616 -4 339 -9 620 -12 625 -7 10 -648 13 -658 2z m1287 -1773
c131 -33 220 -83 312 -175 96 -96 152 -196 191 -343 23 -85 26 -118 27 -262 1
-169 -7 -227 -46 -350 -122 -381 -465 -599 -908 -577 -63 3 -132 11 -152 17
l-38 11 0 823 0 824 83 22 c45 12 114 26 152 31 109 12 289 3 379 -21z"/>
<path d="M11130 5114 c-6 -14 -10 -46 -10 -72 0 -26 -5 -76 -11 -111 -5 -36
-266 -793 -599 -1740 -323 -922 -589 -1683 -590 -1691 -7 -53 -26 -50 313 -50
171 0 318 4 325 8 7 5 84 222 171 483 l158 474 674 0 674 0 165 -471 c91 -259
169 -476 173 -482 6 -9 100 -12 353 -12 301 0 345 2 351 15 3 9 -281 812 -632
1786 -350 973 -646 1797 -657 1829 l-20 60 -414 0 -414 0 -10 -26z m450 -606
c37 -127 184 -589 329 -1033 78 -236 141 -433 141 -437 0 -5 -220 -8 -490 -8
-269 0 -490 3 -490 6 0 4 66 205 146 448 130 394 273 852 304 976 26 103 31
120 35 120 2 0 14 -33 25 -72z"/>
<path d="M17785 4259 c-176 -26 -370 -96 -521 -190 -102 -64 -262 -212 -334
-310 -191 -256 -290 -574 -290 -929 0 -289 54 -522 176 -760 181 -355 490
-582 894 -657 142 -26 441 -24 572 5 634 139 1021 634 1054 1347 22 461 -130
883 -417 1160 -244 235 -543 347 -922 344 -84 -1 -179 -5 -212 -10z m365 -573
c271 -74 447 -322 490 -691 29 -257 -5 -489 -100 -683 -82 -165 -201 -271
-370 -328 -42 -15 -83 -19 -175 -18 -104 0 -131 4 -198 27 -176 61 -296 174
-381 359 -110 237 -127 592 -41 868 80 254 247 425 467 475 75 18 226 13 308
-9z"/>
<path d="M24005 4255 c-548 -101 -921 -491 -1049 -1096 -9 -41 -21 -140 -28
-221 -20 -247 12 -498 92 -723 42 -116 74 -181 149 -291 154 -230 375 -387
656 -469 168 -48 261 -59 510 -59 248 0 373 13 548 59 93 24 261 87 285 107
16 14 13 545 -3 541 -5 -2 -62 -21 -125 -42 -204 -70 -311 -86 -570 -86 -215
0 -229 1 -324 28 -144 40 -246 96 -337 187 -44 44 -91 102 -112 140 -42 77
-84 215 -88 291 l-3 54 834 5 c459 3 842 8 850 12 8 3 27 9 42 12 42 9 50 49
55 282 6 245 -7 353 -62 521 -66 199 -156 345 -295 476 -138 130 -307 219
-500 262 -106 24 -417 29 -525 10z m369 -541 c213 -52 376 -265 376 -493 l0
-61 -574 0 -574 0 9 43 c87 397 392 601 763 511z"/>
<path d="M3355 2773 c-328 -774 -600 -1414 -602 -1420 -4 -10 127 -13 635 -13
500 0 642 -3 649 -12 5 -7 126 -309 269 -670 l259 -658 579 0 c459 0 577 3
573 13 -181 435 -1752 4155 -1757 4160 -4 4 -276 -626 -605 -1400z"/>
</g>
</svg>
